<?xml version="1.0" standalone="no"?>
<!DOCTYPE svg PUBLIC "-//W3C//DTD SVG 20010904//EN"
 "http://www.w3.org/TR/2001/REC-SVG-20010904/DTD/svg10.dtd">
<svg version="1.0" xmlns="http://www.w3.org/2000/svg"
 width="286.000000pt" height="176.000000pt" viewBox="0 0 286.000000 176.000000"
 preserveAspectRatio="xMidYMid meet">

<g transform="translate(0.000000,176.000000) scale(0.100000,-0.100000)"
fill="white" stroke="white">
<path d="M0 880 l0 -880 1430 0 1430 0 0 880 0 880 -1430 0 -1430 0 0 -880z
m1746 685 c52 -32 74 -155 51 -286 l-8 -46 43 -12 c68 -20 135 -61 178 -108
47 -50 53 -97 20 -151 -24 -39 -122 -104 -191 -127 -40 -14 -49 -21 -44 -34
14 -33 17 -176 6 -219 -37 -135 -166 -145 -317 -24 l-60 49 -43 -38 c-89 -79
-200 -115 -263 -85 -57 27 -73 66 -73 176 0 52 3 109 7 125 6 30 5 31 -45 49
-120 41 -207 122 -207 193 0 74 61 133 196 188 44 18 58 29 56 42 -1 10 -5 54
-8 98 -8 97 7 157 46 197 23 23 37 28 77 28 58 0 147 -40 212 -94 l43 -36 27
20 c141 110 228 137 297 95z m-842 -1214 c19 -21 14 -61 -7 -61 -8 0 -8 -3 1
-12 7 -7 12 -28 12 -47 0 -42 -17 -31 -22 14 -3 27 -7 30 -40 33 l-38 3 0 -41
c0 -25 -4 -39 -10 -35 -5 3 -10 42 -10 86 l0 79 48 0 c36 0 54 -5 66 -19z
m607 -48 l44 -67 3 67 c4 97 22 83 22 -18 0 -49 -4 -85 -10 -85 -5 0 -30 30
-55 67 l-45 68 0 -62 c0 -34 -4 -65 -10 -68 -6 -4 -10 25 -10 79 0 47 4 86 9
86 5 0 28 -30 52 -67z m309 57 c0 -5 -4 -10 -10 -10 -5 0 -10 5 -10 10 0 6 5
10 10 10 6 0 10 -4 10 -10z m-466 -42 c8 -6 7 -8 -1 -8 -9 0 -13 -16 -13 -45
0 -25 5 -45 10 -45 6 0 10 -4 10 -10 0 -17 -28 -11 -34 8 -9 29 -10 118 0 133
7 11 9 10 12 -6 3 -11 9 -23 16 -27z m406 16 c0 -8 6 -14 13 -15 10 0 10 -2 0
-6 -8 -3 -13 -23 -13 -48 0 -26 5 -45 13 -48 6 -2 9 -8 5 -12 -4 -4 -14 -5
-23 -2 -11 5 -15 21 -15 57 0 33 -4 50 -12 51 -10 0 -10 2 0 6 6 2 12 14 12
24 0 11 5 17 10 14 6 -3 10 -13 10 -21z m-738 -21 c8 -10 18 -26 21 -35 6 -16
0 -18 -44 -18 -47 0 -49 -1 -39 -20 12 -22 56 -27 63 -7 2 6 8 9 12 5 13 -12
-15 -38 -41 -38 -53 0 -76 83 -32 114 29 20 41 20 60 -1z m120 5 c16 -13 32
-118 17 -118 -11 0 -22 38 -14 50 7 11 -24 14 -49 4 -28 -11 -18 -34 15 -34
17 0 28 -4 24 -10 -10 -15 -51 -12 -66 6 -18 22 0 48 37 54 36 6 47 40 13 40
-12 0 -28 -8 -35 -17 -12 -17 -13 -17 -14 -1 0 17 25 37 46 38 5 0 17 -6 26
-12z m129 2 c10 -6 19 -18 19 -27 0 -15 -2 -15 -18 0 -10 10 -26 17 -35 17
-18 0 -31 -36 -25 -67 5 -25 48 -30 65 -7 10 14 13 15 13 3 0 -21 -20 -39 -44
-39 -51 0 -75 71 -36 110 23 23 33 24 61 10z m410 0 c14 -8 19 -21 19 -53 0
-24 5 -48 12 -55 9 -9 8 -12 -4 -12 -19 0 -30 24 -22 45 6 16 -20 21 -50 9
-28 -11 -18 -34 15 -34 17 0 28 -4 24 -10 -10 -16 -53 -11 -64 7 -13 24 4 53
32 53 29 0 51 15 43 29 -10 16 -37 14 -58 -6 -16 -15 -18 -15 -18 0 0 15 25
36 43 37 5 0 17 -5 28 -10z m357 -6 c12 -8 22 -24 22 -35 0 -16 -7 -19 -45
-19 -43 0 -45 -1 -35 -20 12 -22 56 -27 63 -7 2 6 8 9 12 5 12 -11 -15 -38
-37 -38 -40 0 -58 19 -58 60 0 29 6 43 22 54 12 9 25 16 28 16 3 0 16 -7 28
-16z m-218 -54 c0 -33 -4 -60 -10 -60 -6 0 -10 27 -10 60 0 33 4 60 10 60 6 0
10 -27 10 -60z m50 20 c7 -22 17 -40 21 -40 5 0 14 18 20 40 7 22 16 40 21 40
11 0 11 -2 -13 -65 -11 -30 -24 -55 -28 -55 -5 0 -18 25 -30 56 -24 63 -24 64
-13 64 5 0 15 -18 22 -40z"/>
<path d="M1126 1515 c-18 -19 -36 -78 -36 -121 0 -29 17 -135 23 -139 1 -1 39
3 85 10 62 9 87 17 97 32 8 11 30 39 49 62 20 24 36 47 36 51 0 13 -73 67
-127 95 -58 28 -104 32 -127 10z"/>
<path d="M1605 1511 c-50 -23 -124 -77 -131 -96 -7 -18 85 -133 111 -139 41
-9 149 -25 152 -23 1 2 7 34 13 73 12 78 1 155 -27 186 -21 23 -67 23 -118 -1z"/>
<path d="M1387 1329 l-36 -44 34 -3 c19 -2 52 -2 74 0 l40 3 -38 44 -37 44
-37 -44z"/>
<path d="M1260 1148 c-28 -46 -53 -93 -56 -104 -6 -23 29 -101 78 -172 l29
-43 117 3 116 3 53 90 c29 49 53 95 53 103 0 8 -25 56 -55 108 l-56 94 -114 0
-114 0 -51 -82z m218 -22 c73 -38 75 -153 3 -190 -62 -33 -126 -15 -156 44
-19 37 -19 63 0 100 28 54 98 75 153 46z"/>
<path d="M1177 1210 c-20 -4 -40 -10 -43 -13 -4 -3 2 -29 12 -56 l18 -50 19
32 c10 18 28 47 39 65 21 35 21 35 -45 22z"/>
<path d="M1642 1160 c18 -33 36 -60 39 -60 6 0 39 78 39 92 0 5 -87 28 -106
28 -3 0 10 -27 28 -60z"/>
<path d="M990 1157 c-68 -27 -140 -93 -140 -130 0 -48 109 -130 200 -152 24
-6 27 -2 42 42 9 26 22 62 28 78 11 27 9 40 -16 108 -19 51 -34 77 -44 76 -8
0 -40 -10 -70 -22z"/>
<path d="M1743 1103 c-30 -77 -30 -78 -13 -113 10 -19 23 -54 30 -77 7 -24 17
-43 22 -43 30 0 157 71 186 104 39 44 40 65 6 105 -26 31 -153 101 -183 101
-12 0 -27 -24 -48 -77z"/>
<path d="M1145 909 c-9 -28 -15 -52 -12 -55 2 -3 28 -7 56 -11 l52 -6 -37 62
c-20 33 -38 61 -39 61 -2 0 -11 -23 -20 -51z"/>
<path d="M1648 904 c-20 -32 -35 -60 -33 -62 2 -2 27 -1 54 3 58 8 60 15 32
79 l-17 40 -36 -60z"/>
<path d="M1106 785 c-3 -9 -9 -47 -12 -83 -8 -84 8 -146 42 -169 24 -15 29
-15 79 1 29 9 81 37 114 61 l61 45 -55 69 c-53 65 -58 69 -108 75 -28 4 -66 9
-83 12 -23 4 -33 1 -38 -11z"/>
<path d="M1633 788 c-61 -9 -64 -11 -113 -74 -27 -35 -50 -67 -50 -72 0 -4 21
-24 48 -44 96 -72 167 -93 201 -59 29 29 44 96 37 168 -11 103 -5 99 -123 81z"/>
<path d="M1360 762 c0 -4 16 -23 35 -42 l35 -34 30 34 c16 19 29 38 30 43 0 4
-29 7 -65 7 -36 0 -65 -4 -65 -8z"/>
<path d="M810 320 c0 -26 4 -30 28 -30 37 0 67 22 59 44 -4 11 -19 16 -47 16
-38 0 -40 -2 -40 -30z"/>
<path d="M967 303 c-18 -17 -5 -33 28 -33 37 0 43 8 23 28 -13 13 -41 16 -51
5z"/>
<path d="M1980 290 c-10 -18 -8 -20 30 -20 38 0 40 2 30 20 -6 11 -19 20 -30
20 -11 0 -24 -9 -30 -20z"/>
</g>
</svg>
