
<svg version="1.0" xmlns="http://www.w3.org/2000/svg"
 width="254.000000pt" height="198.000000pt" viewBox="0 0 254.000000 198.000000"
 preserveAspectRatio="xMidYMid meet">

<g transform="translate(0.000000,198.000000) scale(0.100000,-0.100000)"
fill="#000000" stroke="none">
<path d="M1142 1787 c-77 -32 -143 -94 -184 -174 -38 -71 -68 -190 -68 -266 0
-75 29 -203 62 -274 22 -47 32 -85 33 -122 1 -45 5 -57 29 -77 38 -34 80 -31
118 6 26 27 30 36 25 67 -8 45 -22 60 -73 78 -35 12 -42 20 -74 91 -35 79 -35
80 -35 225 l0 145 38 76 c59 120 145 178 264 178 108 0 206 -102 244 -256 9
-34 17 -45 42 -53 16 -6 33 -9 35 -6 3 3 0 33 -6 66 -24 132 -102 242 -206
294 -66 33 -167 34 -244 2z"/>
<path d="M1121 1404 c-30 -38 -28 -89 5 -119 39 -36 87 -34 127 6 30 30 33 31
91 25 268 -30 486 -201 503 -396 9 -101 -50 -193 -152 -236 -44 -18 -148 -18
-210 1 -48 14 -50 14 -83 -12 l-35 -26 49 -21 c39 -16 71 -20 154 -20 92 -1
112 3 161 26 70 32 134 89 161 142 45 88 31 228 -33 326 -104 162 -292 267
-511 285 -66 5 -90 11 -104 26 -27 30 -97 26 -123 -7z"/>
<path d="M756 1186 c-37 -37 -70 -83 -90 -125 -27 -58 -31 -77 -31 -151 0 -73
4 -93 28 -143 35 -71 96 -120 185 -147 82 -25 148 -25 246 0 174 46 319 151
398 288 17 30 38 56 47 59 36 13 61 46 61 83 0 47 -23 78 -64 85 -38 8 -90
-14 -100 -40 -9 -25 -7 -61 6 -90 10 -22 7 -31 -27 -81 -76 -110 -213 -202
-353 -237 -73 -18 -92 -19 -149 -10 -136 24 -213 110 -213 237 0 77 24 130 88
199 49 52 49 52 38 92 l-11 39 -59 -58z"/>
<path d="M1310 459 c0 -58 -1 -60 -22 -53 -84 28 -144 -31 -136 -133 3 -38 11
-60 28 -78 27 -29 75 -33 106 -10 25 19 34 19 34 0 0 -10 10 -15 30 -15 l30 0
0 175 0 175 -35 0 -35 0 0 -61z m-16 -102 c13 -10 17 -24 14 -67 -3 -49 -6
-56 -31 -64 -38 -14 -52 4 -52 65 0 39 5 54 19 65 24 17 28 17 50 1z"/>
<path d="M640 341 l0 -171 35 0 34 0 3 63 c4 85 27 85 77 2 34 -57 39 -60 79
-63 23 -2 42 0 42 3 0 4 -19 37 -43 73 l-43 67 28 24 c26 21 29 29 26 74 -4
73 -31 90 -148 95 l-90 4 0 -171z m158 97 c33 -33 -2 -88 -55 -88 l-33 0 0 50
0 50 38 0 c21 0 43 -5 50 -12z"/>
<path d="M952 394 c-28 -19 -52 -65 -52 -99 0 -100 99 -155 197 -109 34 17 34
17 15 36 -16 16 -24 18 -40 9 -33 -18 -69 -13 -86 11 -9 12 -16 26 -16 30 0 5
36 8 80 8 79 0 80 0 80 25 0 34 -25 82 -49 95 -29 15 -104 12 -129 -6z m103
-44 c24 -26 17 -32 -39 -28 -46 3 -46 3 -31 26 20 27 46 28 70 2z"/>
<path d="M1422 309 c3 -92 5 -103 27 -120 26 -21 72 -25 103 -8 14 8 23 8 31
0 6 -6 21 -11 34 -11 23 0 23 1 23 120 l0 120 -35 0 -34 0 -3 -86 c-2 -70 -6
-89 -20 -98 -13 -8 -23 -8 -35 0 -15 9 -19 28 -21 98 l-3 86 -35 0 -36 0 4
-101z"/>
<path d="M1683 378 c61 -83 61 -77 17 -143 l-40 -60 31 -3 c36 -4 52 8 69 48
7 17 16 30 20 30 4 0 19 -18 34 -40 22 -34 32 -40 61 -40 19 0 35 2 35 5 0 3
-16 29 -35 58 -19 28 -35 56 -35 62 0 6 16 34 35 63 l36 52 -36 0 c-29 0 -39
-6 -57 -35 -13 -19 -26 -35 -30 -35 -3 0 -15 16 -27 35 -18 31 -25 35 -61 35
l-41 0 24 -32z"/>
</g>
</svg>
